0
SECTION
2
HEADER
9
$INSUNITS
70
4
9
$ACADVER
1
AC1014
9
$HANDSEED
5
FFFF
0
ENDSEC
0
SECTION
2
TABLES
0
TABLE
2
VPORT
5
8
100
AcDbSymbolTable
0
ENDTAB
0
TABLE
2
LTYPE
5
5
100
AcDbSymbolTable
0
LTYPE
5
14
100
AcDbSymbolTableRecord
100
AcDbLinetypeTableRecord
2
BYBLOCK
70
0
0
LTYPE
5
15
100
AcDbSymbolTableRecord
100
AcDbLinetypeTableRecord
2
BYLAYER
70
0
0
ENDTAB
0
TABLE
2
LAYER
5
2
100
AcDbSymbolTable
70
2
0
LAYER
5
50
100
AcDbSymbolTableRecord
100
AcDbLayerTableRecord
2
0
70
0
6
CONTINUOUS
0
ENDTAB
0
TABLE
2
STYLE
5
3
100
AcDbSymbolTable
70
1
0
STYLE
5
11
100
AcDbSymbolTableRecord
100
AcDbTextStyleTableRecord
2
STANDARD
70
0
0
ENDTAB
0
TABLE
2
VIEW
5
6
100
AcDbSymbolTable
70
0
0
ENDTAB
0
TABLE
2
UCS
5
7
100
AcDbSymbolTable
70
0
0
ENDTAB
0
TABLE
2
APPID
5
9
100
AcDbSymbolTable
70
2
0
APPID
5
12
100
AcDbSymbolTableRecord
100
AcDbRegAppTableRecord
2
ACAD
70
0
0
ENDTAB
0
TABLE
2
DIMSTYLE
5
A
100
AcDbSymbolTable
70
1
0
ENDTAB
0
TABLE
2
BLOCK_RECORD
5
1
100
AcDbSymbolTable
70
1
0
BLOCK_RECORD
5
1F
100
AcDbSymbolTableRecord
100
AcDbBlockTableRecord
2
*MODEL_SPACE
0
BLOCK_RECORD
5
1B
100
AcDbSymbolTableRecord
100
AcDbBlockTableRecord
2
*PAPER_SPACE
0
ENDTAB
0
ENDSEC
0
SECTION
2
BLOCKS
0
BLOCK
5
20
100
AcDbEntity
100
AcDbBlockBegin
2
*MODEL_SPACE
0
ENDBLK
5
21
100
AcDbEntity
100
AcDbBlockEnd
0
BLOCK
5
1C
100
AcDbEntity
100
AcDbBlockBegin
2
*PAPER_SPACE
0
ENDBLK
5
1D
100
AcDbEntity
100
AcDbBlockEnd
0
ENDSEC
0
SECTION
2
ENTITIES
0
CIRCLE
5
100
100
AcDbEntity
8
0
100
AcDbCircle
10
1886.3157106698882
20
-3342.0951270292699
30
0
40
1.7000000000000348
210
0
220
0
230
1
0
CIRCLE
5
101
100
AcDbEntity
8
0
100
AcDbCircle
10
937.94749108025485
20
-3342.0951270292699
30
0
40
1.7000000000000348
210
0
220
0
230
1
0
CIRCLE
5
102
100
AcDbEntity
8
0
100
AcDbCircle
10
1174.4996711518704
20
-3363.5003853320022
30
0
40
1.7000000000000348
210
0
220
0
230
1
0
CIRCLE
5
103
100
AcDbEntity
8
0
100
AcDbCircle
10
1268.335774841376
20
-3363.5003853320022
30
0
40
1.7000000000000348
210
0
220
0
230
1
0
CIRCLE
5
104
100
AcDbEntity
8
0
100
AcDbCircle
10
1648.7869163308003
20
-3364.1387261734276
30
0
40
1.7000000000000348
210
0
220
0
230
1
0
CIRCLE
5
105
100
AcDbEntity
8
0
100
AcDbCircle
10
1563.2492435798222
20
-3363.5003853320022
30
0
40
1.7000000000000348
210
0
220
0
230
1
0
CIRCLE
5
106
100
AcDbEntity
8
0
100
AcDbCircle
10
1886.9456610437396
20
-3236.9955765380741
30
0
40
1.7000000000000348
210
0
220
0
230
1
0
CIRCLE
5
107
100
AcDbEntity
8
0
100
AcDbCircle
10
937.5771016224794
20
-3237.8083920855233
30
0
40
1.7000000000000348
210
0
220
0
230
1
0
ARC
5
108
100
AcDbEntity
8
0
100
AcDbCircle
10
947.29234129203587
20
-3316.165476741925
30
0
40
1.5925000000000986
210
0
220
0
230
1
100
AcDbArc
50
-135.00000000001444
51
44.999999999985548
0
LINE
5
109
100
AcDbEntity
8
0
100
AcDbLine
10
946.16627374299594
20
-3317.2915442909643
30
0
11
929.41840884107546
21
-3317.2915442909643
31
0
0
LINE
5
110
100
AcDbEntity
8
0
100
AcDbLine
10
929.41840884107546
20
-3317.2915442909643
30
0
11
929.4184088410758
21
-3374.031544290965
31
0
0
LINE
5
111
100
AcDbEntity
8
0
100
AcDbLine
10
929.4184088410758
20
-3374.031544290965
30
0
11
948.40840884107593
21
-3374.031544290965
31
0
0
LINE
5
112
100
AcDbEntity
8
0
100
AcDbLine
10
948.40840884107593
20
-3374.031544290965
30
0
11
948.40840884107593
21
-3357.2736793890431
31
0
0
ARC
5
113
100
AcDbEntity
8
0
100
AcDbCircle
10
949.53447639011551
20
-3356.1476118400037
30
0
40
1.5925000000000986
210
0
220
-0
230
1
100
AcDbArc
50
44.999999999982649
51
224.9999999999942
0
LINE
5
114
100
AcDbEntity
8
0
100
AcDbLine
10
950.66054393915556
20
-3355.0215442909644
30
0
11
1116.1762737429965
21
-3355.0215442909644
31
0
0
ARC
5
115
100
AcDbEntity
8
0
100
AcDbCircle
10
1117.3023412920363
20
-3356.1476118400037
30
0
40
1.5924999999998977
210
0
220
0
230
1
100
AcDbArc
50
-44.999999999994202
51
135.00000000001157
0
LINE
5
116
100
AcDbEntity
8
0
100
AcDbLine
10
1118.4284088410759
20
-3357.2736793890431
30
0
11
1118.4284088410759
21
-3374.031544290965
31
0
0
LINE
5
117
100
AcDbEntity
8
0
100
AcDbLine
10
1118.4284088410759
20
-3374.031544290965
30
0
11
1328.2084088410761
21
-3374.031544290965
31
0
0
LINE
5
118
100
AcDbEntity
8
0
100
AcDbLine
10
1328.2084088410761
20
-3374.031544290965
30
0
11
1328.2084088410759
21
-3357.2736793890431
31
0
0
ARC
5
119
100
AcDbEntity
8
0
100
AcDbCircle
10
1329.3344763901155
20
-3356.1476118400037
30
0
40
1.5925000000000986
210
0
220
-0
230
1
100
AcDbArc
50
44.999999999988432
51
224.9999999999942
0
LINE
5
120
100
AcDbEntity
8
0
100
AcDbLine
10
1330.4605439391553
20
-3355.0215442909644
30
0
11
1495.9762737429965
21
-3355.0215442909644
31
0
0
ARC
5
121
100
AcDbEntity
8
0
100
AcDbCircle
10
1497.1023412920363
20
-3356.1476118400037
30
0
40
1.5925000000000986
210
0
220
0
230
1
100
AcDbArc
50
-44.999999999988447
51
135.00000000001157
0
LINE
5
122
100
AcDbEntity
8
0
100
AcDbLine
10
1498.2284088410761
20
-3357.2736793890431
30
0
11
1498.2284088410761
21
-3374.031544290965
31
0
0
LINE
5
123
100
AcDbEntity
8
0
100
AcDbLine
10
1498.2284088410761
20
-3374.031544290965
30
0
11
1708.0084088410761
21
-3374.031544290965
31
0
0
LINE
5
124
100
AcDbEntity
8
0
100
AcDbLine
10
1708.0084088410761
20
-3374.031544290965
30
0
11
1708.0084088410761
21
-3357.2736793890431
31
0
0
ARC
5
125
100
AcDbEntity
8
0
100
AcDbCircle
10
1709.1344763901157
20
-3356.1476118400037
30
0
40
1.5925000000000986
210
0
220
-0
230
1
100
AcDbArc
50
44.999999999988432
51
224.9999999999942
0
LINE
5
126
100
AcDbEntity
8
0
100
AcDbLine
10
1710.2605439391555
20
-3355.0215442909644
30
0
11
1875.7762737429966
21
-3355.0215442909644
31
0
0
ARC
5
127
100
AcDbEntity
8
0
100
AcDbCircle
10
1876.9023412920365
20
-3356.1476118400037
30
0
40
1.5925000000000986
210
0
220
0
230
1
100
AcDbArc
50
-44.999999999988447
51
135.00000000001157
0
LINE
5
128
100
AcDbEntity
8
0
100
AcDbLine
10
1878.0284088410763
20
-3357.2736793890431
30
0
11
1878.028408841076
21
-3374.031544290965
31
0
0
LINE
5
129
100
AcDbEntity
8
0
100
AcDbLine
10
1878.028408841076
20
-3374.031544290965
30
0
11
1897.0184088410761
21
-3374.031544290965
31
0
0
LINE
5
130
100
AcDbEntity
8
0
100
AcDbLine
10
1897.0184088410761
20
-3374.031544290965
30
0
11
1897.0184088410761
21
-3317.3015442909646
31
0
0
LINE
5
131
100
AcDbEntity
8
0
100
AcDbLine
10
1897.0184088410761
20
-3317.3015442909646
30
0
11
1880.2605439391555
21
-3317.3015442909646
31
0
0
ARC
5
132
100
AcDbEntity
8
0
100
AcDbCircle
10
1879.1344763901157
20
-3316.1754767419256
30
0
40
1.5925000000002996
210
0
220
0
230
1
100
AcDbArc
50
134.99999999999423
51
315.00000000002314
0
LINE
5
133
100
AcDbEntity
8
0
100
AcDbLine
10
1878.0084088410761
20
-3315.0494091928858
30
0
11
1878.0084088410761
21
-3261.5336793890428
31
0
0
ARC
5
134
100
AcDbEntity
8
0
100
AcDbCircle
10
1879.1344763901157
20
-3260.407611840003
30
0
40
1.5924999999996965
210
0
220
-0
230
1
100
AcDbArc
50
44.999999999976858
51
225.0000000000058
0
LINE
5
135
100
AcDbEntity
8
0
100
AcDbLine
10
1880.2605439391555
20
-3259.2815442909641
30
0
11
1897.0184088410761
21
-3259.281544290965
31
0
0
LINE
5
136
100
AcDbEntity
8
0
100
AcDbLine
10
1897.0184088410761
20
-3259.281544290965
30
0
11
1897.0184088410758
21
-3198.2915442909643
31
0
0
LINE
5
137
100
AcDbEntity
8
0
100
AcDbLine
10
1897.0184088410758
20
-3198.2915442909643
30
0
11
929.41840884107592
21
-3198.2915442909643
31
0
0
LINE
5
138
100
AcDbEntity
8
0
100
AcDbLine
10
929.41840884107592
20
-3198.2915442909643
30
0
11
929.41840884107592
21
-3259.2915442909643
31
0
0
LINE
5
139
100
AcDbEntity
8
0
100
AcDbLine
10
929.41840884107592
20
-3259.2915442909643
30
0
11
946.16627374299605
21
-3259.2915442909643
31
0
0
ARC
5
140
100
AcDbEntity
8
0
100
AcDbCircle
10
947.2923412920361
20
-3260.4176118400037
30
0
40
1.5924999999998977
210
0
220
0
230
1
100
AcDbArc
50
-44.999999999994202
51
135.00000000001734
0
LINE
5
141
100
AcDbEntity
8
0
100
AcDbLine
10
948.41840884107569
20
-3261.5436793890431
30
0
11
948.4184088410758
21
-3315.0394091928856
31
0
0
ENDSEC
0
SECTION
2
OBJECTS
0
DICTIONARY
5
C
100
AcDbDictionary
3
ACAD_GROUP
350
D
3
ACAD_MLINESTYLE
350
17
0
DICTIONARY
5
D
100
AcDbDictionary
0
DICTIONARY
5
1A
330
C
100
AcDbDictionary
0
DICTIONARY
5
17
100
AcDbDictionary
0
ENDSEC
0
EOF
