0
SECTION
2
HEADER
9
$INSUNITS
70
4
9
$ACADVER
1
AC1014
9
$HANDSEED
5
FFFF
0
ENDSEC
0
SECTION
2
TABLES
0
TABLE
2
VPORT
5
8
100
AcDbSymbolTable
0
ENDTAB
0
TABLE
2
LTYPE
5
5
100
AcDbSymbolTable
0
LTYPE
5
14
100
AcDbSymbolTableRecord
100
AcDbLinetypeTableRecord
2
BYBLOCK
70
0
0
LTYPE
5
15
100
AcDbSymbolTableRecord
100
AcDbLinetypeTableRecord
2
BYLAYER
70
0
0
ENDTAB
0
TABLE
2
LAYER
5
2
100
AcDbSymbolTable
70
2
0
LAYER
5
50
100
AcDbSymbolTableRecord
100
AcDbLayerTableRecord
2
0
70
0
6
CONTINUOUS
0
ENDTAB
0
TABLE
2
STYLE
5
3
100
AcDbSymbolTable
70
1
0
STYLE
5
11
100
AcDbSymbolTableRecord
100
AcDbTextStyleTableRecord
2
STANDARD
70
0
0
ENDTAB
0
TABLE
2
VIEW
5
6
100
AcDbSymbolTable
70
0
0
ENDTAB
0
TABLE
2
UCS
5
7
100
AcDbSymbolTable
70
0
0
ENDTAB
0
TABLE
2
APPID
5
9
100
AcDbSymbolTable
70
2
0
APPID
5
12
100
AcDbSymbolTableRecord
100
AcDbRegAppTableRecord
2
ACAD
70
0
0
ENDTAB
0
TABLE
2
DIMSTYLE
5
A
100
AcDbSymbolTable
70
1
0
ENDTAB
0
TABLE
2
BLOCK_RECORD
5
1
100
AcDbSymbolTable
70
1
0
BLOCK_RECORD
5
1F
100
AcDbSymbolTableRecord
100
AcDbBlockTableRecord
2
*MODEL_SPACE
0
BLOCK_RECORD
5
1B
100
AcDbSymbolTableRecord
100
AcDbBlockTableRecord
2
*PAPER_SPACE
0
ENDTAB
0
ENDSEC
0
SECTION
2
BLOCKS
0
BLOCK
5
20
100
AcDbEntity
100
AcDbBlockBegin
2
*MODEL_SPACE
0
ENDBLK
5
21
100
AcDbEntity
100
AcDbBlockEnd
0
BLOCK
5
1C
100
AcDbEntity
100
AcDbBlockBegin
2
*PAPER_SPACE
0
ENDBLK
5
1D
100
AcDbEntity
100
AcDbBlockEnd
0
ENDSEC
0
SECTION
2
ENTITIES
0
CIRCLE
5
100
100
AcDbEntity
8
0
100
AcDbCircle
10
-1005.9238265881802
20
111.37088114683036
30
0
40
31.474645294795405
210
0
220
-0
230
1
0
CIRCLE
5
101
100
AcDbEntity
8
0
100
AcDbCircle
10
-1886.7561949016713
20
104.85414094612167
30
0
40
1.7000000000000348
210
0
220
-0
230
1
0
CIRCLE
5
102
100
AcDbEntity
8
0
100
AcDbCircle
10
-938.47789469423242
20
104.97159566094204
30
0
40
1.7000000000000348
210
0
220
-0
230
1
0
CIRCLE
5
103
100
AcDbEntity
8
0
100
AcDbCircle
10
-1381.239422703642
20
10.02457553437587
30
0
40
1.7000000000000348
210
0
220
-0
230
1
0
CIRCLE
5
104
100
AcDbEntity
8
0
100
AcDbCircle
10
-1837.6094552925606
20
9.3549701774750105
30
0
40
1.7000000000000348
210
0
220
-0
230
1
0
CIRCLE
5
105
100
AcDbEntity
8
0
100
AcDbCircle
10
-1757.5229591121299
20
9.9806459288839378
30
0
40
1.7000000000000348
210
0
220
-0
230
1
0
CIRCLE
5
106
100
AcDbEntity
8
0
100
AcDbCircle
10
-1453.5738132835941
20
9.6145234820458469
30
0
40
1.7000000000000348
210
0
220
-0
230
1
0
CIRCLE
5
107
100
AcDbEntity
8
0
100
AcDbCircle
10
-1068.9223890575929
20
9.0847005836632988
30
0
40
1.7000000000000348
210
0
220
-0
230
1
0
CIRCLE
5
108
100
AcDbEntity
8
0
100
AcDbCircle
10
-993.68753748721804
20
9.0847005836632988
30
0
40
1.7000000000000348
210
0
220
-0
230
1
0
LWPOLYLINE
5
109
100
AcDbEntity
8
0
100
AcDbPolyline
90
28
70
1
43
0.0
10
-1880.2705439391552
20
76.000000000000057
42
-0.99999999999999989
10
-1878.0184088410761
20
73.74786490192092
10
-1878.0184088410761
20
0
10
-1708.0184088410761
20
0
10
-1708.0184088410761
20
16.747864901921009
42
-0.99999999999999989
10
-1705.7662737429969
20
18.999999999999964
10
-1500.470543939155
20
19.000000000000064
42
-0.99999999999999989
10
-1498.2184088410759
20
16.747864901920934
10
-1498.2184088410759
20
0
10
-1328.2184088410759
20
0
10
-1328.2184088410759
20
16.747864901921009
42
-0.99999999999999989
10
-1325.9662737429967
20
18.999999999999964
10
-1120.6705439391553
20
18.999999999999922
42
-0.99999999999999989
10
-1118.4184088410759
20
16.747864901920934
10
-1118.4184088410759
20
0
10
-948.41840884107592
20
0
10
-948.41840884107557
20
73.747864901920849
42
-0.99999999999999989
10
-946.16627374299651
20
75.999999999999957
10
-929.41840884107592
20
75.999999999999986
10
-929.41840884107592
20
134
10
-946.16627374299628
20
134.00000000000009
42
-0.99999999999999989
10
-948.4184088410758
20
136.25213509807904
10
-948.4184088410758
20
189
10
-1878.0184088410761
20
189
10
-1878.0184088410761
20
136.25213509807895
42
-0.99999999999999989
10
-1880.2705439391552
20
134.00000000000003
10
-1897.0184088410761
20
134
10
-1897.0184088410761
20
75.999999999999986
0
ENDSEC
0
SECTION
2
OBJECTS
0
DICTIONARY
5
C
100
AcDbDictionary
3
ACAD_GROUP
350
D
3
ACAD_MLINESTYLE
350
17
0
DICTIONARY
5
D
100
AcDbDictionary
0
DICTIONARY
5
1A
330
C
100
AcDbDictionary
0
DICTIONARY
5
17
100
AcDbDictionary
0
ENDSEC
0
EOF
