0
SECTION
2
HEADER
9
$INSUNITS
70
4
9
$ACADVER
1
AC1014
9
$HANDSEED
5
FFFF
0
ENDSEC
0
SECTION
2
TABLES
0
TABLE
2
VPORT
5
8
100
AcDbSymbolTable
0
ENDTAB
0
TABLE
2
LTYPE
5
5
100
AcDbSymbolTable
0
LTYPE
5
14
100
AcDbSymbolTableRecord
100
AcDbLinetypeTableRecord
2
BYBLOCK
70
0
0
LTYPE
5
15
100
AcDbSymbolTableRecord
100
AcDbLinetypeTableRecord
2
BYLAYER
70
0
0
ENDTAB
0
TABLE
2
LAYER
5
2
100
AcDbSymbolTable
70
2
0
LAYER
5
50
100
AcDbSymbolTableRecord
100
AcDbLayerTableRecord
2
0
70
0
6
CONTINUOUS
0
ENDTAB
0
TABLE
2
STYLE
5
3
100
AcDbSymbolTable
70
1
0
STYLE
5
11
100
AcDbSymbolTableRecord
100
AcDbTextStyleTableRecord
2
STANDARD
70
0
0
ENDTAB
0
TABLE
2
VIEW
5
6
100
AcDbSymbolTable
70
0
0
ENDTAB
0
TABLE
2
UCS
5
7
100
AcDbSymbolTable
70
0
0
ENDTAB
0
TABLE
2
APPID
5
9
100
AcDbSymbolTable
70
2
0
APPID
5
12
100
AcDbSymbolTableRecord
100
AcDbRegAppTableRecord
2
ACAD
70
0
0
ENDTAB
0
TABLE
2
DIMSTYLE
5
A
100
AcDbSymbolTable
70
1
0
ENDTAB
0
TABLE
2
BLOCK_RECORD
5
1
100
AcDbSymbolTable
70
1
0
BLOCK_RECORD
5
1F
100
AcDbSymbolTableRecord
100
AcDbBlockTableRecord
2
*MODEL_SPACE
0
BLOCK_RECORD
5
1B
100
AcDbSymbolTableRecord
100
AcDbBlockTableRecord
2
*PAPER_SPACE
0
ENDTAB
0
ENDSEC
0
SECTION
2
BLOCKS
0
BLOCK
5
20
100
AcDbEntity
100
AcDbBlockBegin
2
*MODEL_SPACE
0
ENDBLK
5
21
100
AcDbEntity
100
AcDbBlockEnd
0
BLOCK
5
1C
100
AcDbEntity
100
AcDbBlockBegin
2
*PAPER_SPACE
0
ENDBLK
5
1D
100
AcDbEntity
100
AcDbBlockEnd
0
ENDSEC
0
SECTION
2
ENTITIES
0
CIRCLE
5
100
100
AcDbEntity
8
0
100
AcDbCircle
10
-297.51110128838661
20
-3694.7509098866694
30
0
40
31.474645294795405
210
0
220
-0
230
1
0
CIRCLE
5
101
100
AcDbEntity
8
0
100
AcDbCircle
10
583.32126702510436
20
-3688.2341696859608
30
0
40
1.7000000000000348
210
-0
220
1.5777218104420236e-30
230
1
0
CIRCLE
5
102
100
AcDbEntity
8
0
100
AcDbCircle
10
-364.95703318233438
20
-3688.3516244007806
30
0
40
1.7000000000000348
210
-0
220
1.5777218104420236e-30
230
1
0
CIRCLE
5
103
100
AcDbEntity
8
0
100
AcDbCircle
10
77.804494827075246
20
-3593.4046042742148
30
0
40
1.7000000000000348
210
-0
220
1.5777218104420236e-30
230
1
0
CIRCLE
5
104
100
AcDbEntity
8
0
100
AcDbCircle
10
534.17452741599368
20
-3592.7349989173135
30
0
40
1.7000000000000348
210
-0
220
1.5777218104420236e-30
230
1
0
CIRCLE
5
105
100
AcDbEntity
8
0
100
AcDbCircle
10
454.08803123556311
20
-3593.3606746687228
30
0
40
1.7000000000000348
210
-0
220
1.5777218104420236e-30
230
1
0
CIRCLE
5
106
100
AcDbEntity
8
0
100
AcDbCircle
10
150.13888540702709
20
-3592.994552221885
30
0
40
1.7000000000000348
210
-0
220
1.5777218104420236e-30
230
1
0
CIRCLE
5
107
100
AcDbEntity
8
0
100
AcDbCircle
10
-234.51253881897387
20
-3592.4647293235021
30
0
40
1.7000000000000348
210
-0
220
1.5777218104420236e-30
230
1
0
CIRCLE
5
108
100
AcDbEntity
8
0
100
AcDbCircle
10
-309.74739038934888
20
-3592.4647293235021
30
0
40
1.7000000000000348
210
-0
220
1.5777218104420236e-30
230
1
0
ARC
5
109
100
AcDbEntity
8
0
100
AcDbCircle
10
575.70954851354873
20
-3658.2539611907996
30
-1.9793340808588041e-43
40
1.5925000000003497
210
-1.1156177909895438e-30
220
-1.1156177909892259e-30
230
1
100
AcDbArc
50
134.99999999999713
51
314.99999999998846
0
LINE
5
110
100
AcDbEntity
8
0
100
AcDbLine
10
574.58348096450902
20
-3657.1278936417598
30
-3.1815225973253246e-43
11
574.58348096450914
21
-3583.380028739839
31
0
0
LINE
5
111
100
AcDbEntity
8
0
100
AcDbLine
10
574.58348096450914
20
-3583.380028739839
30
0
11
404.58348096450919
21
-3583.380028739839
31
0
0
LINE
5
112
100
AcDbEntity
8
0
100
AcDbLine
10
404.58348096450919
20
-3583.380028739839
30
0
11
404.58348096450919
21
-3600.1278936417602
31
0
0
ARC
5
113
100
AcDbEntity
8
0
100
AcDbCircle
10
403.45741341546966
20
-3601.2539611907996
30
3.5648916621804075e-43
40
1.5925000000000482
210
2.7973420594084161e-43
220
2.2312355819786999e-30
230
1
100
AcDbArc
50
-135.00000000001157
51
44.999999999995659
0
LINE
5
114
100
AcDbEntity
8
0
100
AcDbLine
10
402.33134586642984
20
-3602.380028739839
30
2.512521983128841e-30
11
197.0356160625883
21
-3602.380028739839
31
0
0
ARC
5
115
100
AcDbEntity
8
0
100
AcDbCircle
10
195.90954851354851
20
-3601.2539611907996
30
0
40
1.5924999999998724
210
0
220
0
230
1
100
AcDbArc
50
135.00000000000651
51
315.00000000001086
0
LINE
5
116
100
AcDbEntity
8
0
100
AcDbLine
10
194.7834809645089
20
-3600.1278936417602
30
0
11
194.78348096450901
21
-3583.380028739839
31
0
0
LINE
5
117
100
AcDbEntity
8
0
100
AcDbLine
10
194.78348096450901
20
-3583.380028739839
30
0
11
24.78348096450901
21
-3583.380028739839
31
0
0
LINE
5
118
100
AcDbEntity
8
0
100
AcDbLine
10
24.78348096450901
20
-3583.380028739839
30
0
11
24.78348096450901
21
-3600.1278936417602
31
0
0
ARC
5
119
100
AcDbEntity
8
0
100
AcDbCircle
10
23.657413415469509
20
-3601.2539611907996
30
3.2654418393529465e-43
40
1.592500000000026
210
3.0127916982983559e-43
220
2.2312355819787051e-30
230
1
100
AcDbArc
50
-135.00000000001185
51
44.999999999996476
0
LINE
5
120
100
AcDbEntity
8
0
100
AcDbLine
10
22.531345866429682
20
-3602.380028739839
30
2.512521983128841e-30
11
-182.76438393741174
21
-3602.380028739839
31
0
0
ARC
5
121
100
AcDbEntity
8
0
100
AcDbCircle
10
-183.89045148645152
20
-3601.2539611907996
30
0
40
1.5924999999998724
210
0
220
0
230
1
100
AcDbArc
50
135.00000000000651
51
315.00000000001086
0
LINE
5
122
100
AcDbEntity
8
0
100
AcDbLine
10
-185.01651903549114
20
-3600.1278936417602
30
0
11
-185.01651903549103
21
-3583.380028739839
31
0
0
LINE
5
123
100
AcDbEntity
8
0
100
AcDbLine
10
-185.01651903549103
20
-3583.380028739839
30
0
11
-355.01651903549089
21
-3583.380028739839
31
0
0
LINE
5
124
100
AcDbEntity
8
0
100
AcDbLine
10
-355.01651903549089
20
-3583.380028739839
30
0
11
-355.016519035491
21
-3657.1278936417598
31
0
0
ARC
5
125
100
AcDbEntity
8
0
100
AcDbCircle
10
-356.14258658453053
20
-3658.2539611907996
30
-3.5670811910310178e-43
40
1.5924999999995959
210
-8.6197371786780294e-43
220
-2.231235581979246e-30
230
1
100
AcDbArc
50
-135.00000000002171
51
45.000000000007226
0
LINE
5
126
100
AcDbEntity
8
0
100
AcDbLine
10
-357.26865413357029
20
-3659.3800287398385
30
-2.5125219831288438e-30
11
-374.01651903549094
21
-3659.3800287398385
31
0
0
LINE
5
127
100
AcDbEntity
8
0
100
AcDbLine
10
-374.01651903549094
20
-3659.3800287398385
30
0
11
-374.01651903549094
21
-3717.380028739839
31
0
0
LINE
5
128
100
AcDbEntity
8
0
100
AcDbLine
10
-374.01651903549094
20
-3717.380028739839
30
0
11
-357.26865413357029
21
-3717.380028739839
31
0
0
ARC
5
129
100
AcDbEntity
8
0
100
AcDbCircle
10
-356.14258658453053
20
-3718.5060962888783
30
0
40
1.5925000000002996
210
0
220
0
230
1
100
AcDbArc
50
-45.000000000004327
51
135.00000000001012
0
LINE
5
130
100
AcDbEntity
8
0
100
AcDbLine
10
-355.01651903549089
20
-3719.6321638379181
30
0
11
-355.016519035491
21
-3772.380028739839
31
0
0
LINE
5
131
100
AcDbEntity
8
0
100
AcDbLine
10
-355.016519035491
20
-3772.380028739839
30
0
11
574.58348096450914
21
-3772.380028739839
31
0
0
LINE
5
132
100
AcDbEntity
8
0
100
AcDbLine
10
574.58348096450914
20
-3772.380028739839
30
0
11
574.58348096450914
21
-3719.6321638379181
31
0
0
ARC
5
133
100
AcDbEntity
8
0
100
AcDbCircle
10
575.70954851354873
20
-3718.5060962888783
30
0
40
1.5924999999995959
210
0
220
-0
230
1
100
AcDbArc
50
44.999999999976858
51
225.0000000000058
0
LINE
5
134
100
AcDbEntity
8
0
100
AcDbLine
10
576.83561606258854
20
-3717.3800287398394
30
0
11
593.58348096450925
21
-3717.380028739839
31
0
0
LINE
5
135
100
AcDbEntity
8
0
100
AcDbLine
10
593.58348096450925
20
-3717.380028739839
30
0
11
593.58348096450925
21
-3659.3800287398385
31
0
0
LINE
5
136
100
AcDbEntity
8
0
100
AcDbLine
10
593.58348096450925
20
-3659.3800287398385
30
0
11
576.83561606258854
21
-3659.3800287398399
31
-7.8022251639671039e-44
0
ENDSEC
0
SECTION
2
OBJECTS
0
DICTIONARY
5
C
100
AcDbDictionary
3
ACAD_GROUP
350
D
3
ACAD_MLINESTYLE
350
17
0
DICTIONARY
5
D
100
AcDbDictionary
0
DICTIONARY
5
1A
330
C
100
AcDbDictionary
0
DICTIONARY
5
17
100
AcDbDictionary
0
ENDSEC
0
EOF
