0
SECTION
2
HEADER
9
$INSUNITS
70
4
9
$ACADVER
1
AC1014
9
$HANDSEED
5
FFFF
0
ENDSEC
0
SECTION
2
TABLES
0
TABLE
2
VPORT
5
8
100
AcDbSymbolTable
0
ENDTAB
0
TABLE
2
LTYPE
5
5
100
AcDbSymbolTable
0
LTYPE
5
14
100
AcDbSymbolTableRecord
100
AcDbLinetypeTableRecord
2
BYBLOCK
70
0
0
LTYPE
5
15
100
AcDbSymbolTableRecord
100
AcDbLinetypeTableRecord
2
BYLAYER
70
0
0
ENDTAB
0
TABLE
2
LAYER
5
2
100
AcDbSymbolTable
70
2
0
LAYER
5
50
100
AcDbSymbolTableRecord
100
AcDbLayerTableRecord
2
0
70
0
6
CONTINUOUS
0
ENDTAB
0
TABLE
2
STYLE
5
3
100
AcDbSymbolTable
70
1
0
STYLE
5
11
100
AcDbSymbolTableRecord
100
AcDbTextStyleTableRecord
2
STANDARD
70
0
0
ENDTAB
0
TABLE
2
VIEW
5
6
100
AcDbSymbolTable
70
0
0
ENDTAB
0
TABLE
2
UCS
5
7
100
AcDbSymbolTable
70
0
0
ENDTAB
0
TABLE
2
APPID
5
9
100
AcDbSymbolTable
70
2
0
APPID
5
12
100
AcDbSymbolTableRecord
100
AcDbRegAppTableRecord
2
ACAD
70
0
0
ENDTAB
0
TABLE
2
DIMSTYLE
5
A
100
AcDbSymbolTable
70
1
0
ENDTAB
0
TABLE
2
BLOCK_RECORD
5
1
100
AcDbSymbolTable
70
1
0
BLOCK_RECORD
5
1F
100
AcDbSymbolTableRecord
100
AcDbBlockTableRecord
2
*MODEL_SPACE
0
BLOCK_RECORD
5
1B
100
AcDbSymbolTableRecord
100
AcDbBlockTableRecord
2
*PAPER_SPACE
0
ENDTAB
0
ENDSEC
0
SECTION
2
BLOCKS
0
BLOCK
5
20
100
AcDbEntity
100
AcDbBlockBegin
2
*MODEL_SPACE
0
ENDBLK
5
21
100
AcDbEntity
100
AcDbBlockEnd
0
BLOCK
5
1C
100
AcDbEntity
100
AcDbBlockBegin
2
*PAPER_SPACE
0
ENDBLK
5
1D
100
AcDbEntity
100
AcDbBlockEnd
0
ENDSEC
0
SECTION
2
ENTITIES
0
CIRCLE
5
100
100
AcDbEntity
8
0
100
AcDbCircle
10
1677.7492986973648
20
-3210.0377370774268
30
0
40
1.7000000000000348
210
0
220
0
230
1
0
CIRCLE
5
101
100
AcDbEntity
8
0
100
AcDbCircle
10
1569.398287441845
20
-3210.3587680060723
30
0
40
1.7000000000000348
210
0
220
0
230
1
0
CIRCLE
5
102
100
AcDbEntity
8
0
100
AcDbCircle
10
1275.3982057420703
20
-3210.4857902190943
30
0
40
1.7000000000000348
210
0
220
0
230
1
0
CIRCLE
5
103
100
AcDbEntity
8
0
100
AcDbCircle
10
1148.0449394228483
20
-3209.8672208999783
30
0
40
1.7000000000000348
210
0
220
0
230
1
0
LWPOLYLINE
5
104
100
AcDbEntity
8
0
100
AcDbPolyline
90
28
70
1
43
0.0
10
948.42840884107568
20
-3265.0494091928867
42
-0.99999999999999989
10
946.17627374299582
20
-3267.3015442909646
10
929.4184088410758
20
-3267.3015442909646
10
929.4184088410758
20
-3324.0215442909648
10
946.17627374299605
20
-3324.0215442909634
42
-0.99999999999999989
10
948.42840884107557
20
-3326.2736793890435
10
948.42840884107545
20
-3374.031544290965
10
1878.0084088410761
20
-3374.031544290965
10
1878.0084088410758
20
-3326.2736793890422
42
-0.99999999999999989
10
1880.2605439391555
20
-3324.0215442909648
10
1897.0184088410758
20
-3324.0215442909648
10
1897.0184088410758
20
-3267.3015442909646
10
1880.2605439391552
20
-3267.3015442909655
42
-0.99999999999999989
10
1878.0084088410761
20
-3265.0494091928858
10
1878.0084088410761
20
-3217.3015442909646
10
1739.260543939155
20
-3217.3015442909655
42
-0.99999999999999989
10
1737.0084088410758
20
-3215.0494091928858
10
1737.0084088410758
20
-3198.2915442909643
10
1493.2284088410759
20
-3198.2915442909643
10
1493.2284088410765
20
-3215.0494091928867
42
-0.99999999999999989
10
1490.9762737429967
20
-3217.3015442909646
10
1335.4605439391551
20
-3217.3015442909655
42
-0.99999999999999989
10
1333.2084088410759
20
-3215.0494091928858
10
1333.2084088410759
20
-3198.2915442909643
10
1089.4284088410759
20
-3198.2915442909643
10
1089.4284088410764
20
-3215.0494091928867
42
-0.99999999999999989
10
1087.1762737429963
20
-3217.3015442909646
10
948.42840884107545
20
-3217.3015442909646
0
ENDSEC
0
SECTION
2
OBJECTS
0
DICTIONARY
5
C
100
AcDbDictionary
3
ACAD_GROUP
350
D
3
ACAD_MLINESTYLE
350
17
0
DICTIONARY
5
D
100
AcDbDictionary
0
DICTIONARY
5
1A
330
C
100
AcDbDictionary
0
DICTIONARY
5
17
100
AcDbDictionary
0
ENDSEC
0
EOF
