0
SECTION
2
HEADER
9
$INSUNITS
70
4
9
$ACADVER
1
AC1014
9
$HANDSEED
5
FFFF
0
ENDSEC
0
SECTION
2
TABLES
0
TABLE
2
VPORT
5
8
100
AcDbSymbolTable
0
ENDTAB
0
TABLE
2
LTYPE
5
5
100
AcDbSymbolTable
0
LTYPE
5
14
100
AcDbSymbolTableRecord
100
AcDbLinetypeTableRecord
2
BYBLOCK
70
0
0
LTYPE
5
15
100
AcDbSymbolTableRecord
100
AcDbLinetypeTableRecord
2
BYLAYER
70
0
0
ENDTAB
0
TABLE
2
LAYER
5
2
100
AcDbSymbolTable
70
2
0
LAYER
5
50
100
AcDbSymbolTableRecord
100
AcDbLayerTableRecord
2
0
70
0
6
CONTINUOUS
0
ENDTAB
0
TABLE
2
STYLE
5
3
100
AcDbSymbolTable
70
1
0
STYLE
5
11
100
AcDbSymbolTableRecord
100
AcDbTextStyleTableRecord
2
STANDARD
70
0
0
ENDTAB
0
TABLE
2
VIEW
5
6
100
AcDbSymbolTable
70
0
0
ENDTAB
0
TABLE
2
UCS
5
7
100
AcDbSymbolTable
70
0
0
ENDTAB
0
TABLE
2
APPID
5
9
100
AcDbSymbolTable
70
2
0
APPID
5
12
100
AcDbSymbolTableRecord
100
AcDbRegAppTableRecord
2
ACAD
70
0
0
ENDTAB
0
TABLE
2
DIMSTYLE
5
A
100
AcDbSymbolTable
70
1
0
ENDTAB
0
TABLE
2
BLOCK_RECORD
5
1
100
AcDbSymbolTable
70
1
0
BLOCK_RECORD
5
1F
100
AcDbSymbolTableRecord
100
AcDbBlockTableRecord
2
*MODEL_SPACE
0
BLOCK_RECORD
5
1B
100
AcDbSymbolTableRecord
100
AcDbBlockTableRecord
2
*PAPER_SPACE
0
ENDTAB
0
ENDSEC
0
SECTION
2
BLOCKS
0
BLOCK
5
20
100
AcDbEntity
100
AcDbBlockBegin
2
*MODEL_SPACE
0
ENDBLK
5
21
100
AcDbEntity
100
AcDbBlockEnd
0
BLOCK
5
1C
100
AcDbEntity
100
AcDbBlockBegin
2
*PAPER_SPACE
0
ENDBLK
5
1D
100
AcDbEntity
100
AcDbBlockEnd
0
ENDSEC
0
SECTION
2
ENTITIES
0
CIRCLE
5
100
100
AcDbEntity
8
0
100
AcDbCircle
10
269.69749302069005
20
1076.723395416971
30
8.8817841970012523e-15
40
1.7000000000000348
210
-7.6714366799074881e-43
220
5.6073750855538602e-71
230
1
0
CIRCLE
5
101
100
AcDbEntity
8
0
100
AcDbCircle
10
161.34648176517032
20
1076.4023644883252
30
0
40
1.7000000000000348
210
-7.6714366799074881e-43
220
5.6073750855538602e-71
230
1
0
CIRCLE
5
102
100
AcDbEntity
8
0
100
AcDbCircle
10
-132.65359993460436
20
1076.2753422753035
30
1.7763568394002505e-14
40
1.7000000000000348
210
-7.6714366799074881e-43
220
5.6073750855538602e-71
230
1
0
CIRCLE
5
103
100
AcDbEntity
8
0
100
AcDbCircle
10
-260.00686625382639
20
1076.8939115944193
30
8.8817841970012523e-15
40
1.7000000000000348
210
-7.6714366799074881e-43
220
5.6073750855538602e-71
230
1
0
ARC
5
104
100
AcDbEntity
8
0
100
AcDbCircle
10
-460.74946438463888
20
1020.5856557524727
30
8.8817841970012507e-15
40
1.5925000000000986
210
1.0946014432784979e-30
220
1.5324420205897973e-30
230
1
100
AcDbArc
50
-135.00000000000145
51
45.000000000001442
0
LINE
5
105
100
AcDbEntity
8
0
100
AcDbLine
10
-461.87553193367853
20
1019.4595882034331
30
8.8817841970012539e-15
11
-478.63339683559889
21
1019.4595882034332
31
8.8817841970012523e-15
0
LINE
5
106
100
AcDbEntity
8
0
100
AcDbLine
10
-478.63339683559889
20
1019.4595882034332
30
8.8817841970012523e-15
11
-478.63339683559889
21
962.73958820343296
31
1.7763568394002505e-14
0
LINE
5
107
100
AcDbEntity
8
0
100
AcDbLine
10
-478.63339683559889
20
962.73958820343296
30
1.7763568394002505e-14
11
-461.87553193367864
21
962.73958820343296
31
1.7763568394002505e-14
0
ARC
5
108
100
AcDbEntity
8
0
100
AcDbCircle
10
-460.74946438463883
20
961.61352065439371
30
8.8817841970012523e-15
40
1.5925000000000482
210
2.1892028865568087e-30
220
2.1892028865572232e-30
230
1
100
AcDbArc
50
-44.999999999994202
51
135.00000000001444
0
LINE
5
109
100
AcDbEntity
8
0
100
AcDbLine
10
-459.62339683559912
20
960.48745310535423
30
8.8817841970012523e-15
11
-459.62339683559918
21
912.72958820343263
31
8.8817841970012523e-15
0
LINE
5
110
100
AcDbEntity
8
0
100
AcDbLine
10
-459.62339683559918
20
912.72958820343263
30
8.8817841970012523e-15
11
469.95660316440137
21
912.72958820343263
31
8.8817841970012523e-15
0
LINE
5
111
100
AcDbEntity
8
0
100
AcDbLine
10
469.95660316440137
20
912.72958820343263
30
8.8817841970012523e-15
11
469.95660316440137
21
960.48745310535423
31
8.8817841970012523e-15
0
ARC
5
112
100
AcDbEntity
8
0
100
AcDbCircle
10
471.08267071344096
20
961.6135206543936
30
8.8817841970012523e-15
40
1.5925000000000482
210
0
220
-0
230
1
100
AcDbArc
50
44.999999999988432
51
224.9999999999942
0
LINE
5
113
100
AcDbEntity
8
0
100
AcDbLine
10
472.20873826248078
20
962.73958820343296
30
8.8817841970012523e-15
11
488.96660316440119
21
962.73958820343296
31
8.8817841970012523e-15
0
LINE
5
114
100
AcDbEntity
8
0
100
AcDbLine
10
488.96660316440119
20
962.73958820343296
30
8.8817841970012523e-15
11
488.96660316440119
21
1019.4595882034332
31
8.8817841970012523e-15
0
LINE
5
115
100
AcDbEntity
8
0
100
AcDbLine
10
488.96660316440119
20
1019.4595882034332
30
8.8817841970012523e-15
11
472.20873826248095
21
1019.4595882034332
31
8.8817841970012523e-15
0
ARC
5
116
100
AcDbEntity
8
0
100
AcDbCircle
10
471.08267071344096
20
1020.5856557524726
30
8.8817841970012507e-15
40
1.5924999999999478
210
2.189202886560643e-31
220
-2.4081231752125486e-30
230
1
100
AcDbArc
50
135.0000000000029
51
315.00000000001592
0
LINE
5
117
100
AcDbEntity
8
0
100
AcDbLine
10
469.95660316440137
20
1021.7117233015121
30
8.8817841970012539e-15
11
469.95660316440137
21
1069.4595882034332
31
8.8817841970012523e-15
0
LINE
5
118
100
AcDbEntity
8
0
100
AcDbLine
10
469.95660316440137
20
1069.4595882034332
30
8.8817841970012523e-15
11
331.20873826248072
21
1069.4595882034332
31
8.8817841970012523e-15
0
ARC
5
119
100
AcDbEntity
8
0
100
AcDbCircle
10
330.08267071344073
20
1070.5856557524726
30
8.8817841970012507e-15
40
1.5924999999999478
210
2.189202886560643e-31
220
-2.4081231752125486e-30
230
1
100
AcDbArc
50
135
51
315.00000000001592
0
LINE
5
120
100
AcDbEntity
8
0
100
AcDbLine
10
328.95660316440114
20
1071.7117233015122
30
8.8817841970012539e-15
11
328.95660316440114
21
1088.4695882034334
31
8.8817841970012523e-15
0
LINE
5
121
100
AcDbEntity
8
0
100
AcDbLine
10
328.95660316440114
20
1088.4695882034334
30
8.8817841970012523e-15
11
85.176603164401286
21
1088.4695882034334
31
8.8817841970012523e-15
0
LINE
5
122
100
AcDbEntity
8
0
100
AcDbLine
10
85.176603164401286
20
1088.4695882034334
30
8.8817841970012523e-15
11
85.176603164401286
21
1071.7117233015119
31
0
0
ARC
5
123
100
AcDbEntity
8
0
100
AcDbCircle
10
84.050535615361639
20
1070.5856557524726
30
2.1895288505075267e-46
40
1.5925000000000231
210
1.1156177909896223e-30
220
1.1156177909892876e-30
230
1
100
AcDbArc
50
-135.00000000001157
51
44.999999999992774
0
LINE
5
124
100
AcDbEntity
8
0
100
AcDbLine
10
82.924468066321822
20
1069.4595882034332
30
2.5125219831289216e-30
11
-72.591261737519233
21
1069.4595882034332
31
8.8817841970012523e-15
0
ARC
5
125
100
AcDbEntity
8
0
100
AcDbCircle
10
-73.717329286559178
20
1070.5856557524726
30
1.3881612912217719e-43
40
1.5925000000000169
210
5.2023205488058834e-43
220
-2.2312355819787973e-30
230
1
100
AcDbArc
50
135.00000000000179
51
315.00000000001484
0
LINE
5
126
100
AcDbEntity
8
0
100
AcDbLine
10
-74.843396835598838
20
1071.7117233015122
30
2.5125219831293206e-30
11
-74.84339683559881
21
1088.4695882034334
31
8.8817841970012523e-15
0
LINE
5
127
100
AcDbEntity
8
0
100
AcDbLine
10
-74.84339683559881
20
1088.4695882034334
30
8.8817841970012523e-15
11
-318.62339683559867
21
1088.4695882034334
31
8.8817841970012523e-15
0
LINE
5
128
100
AcDbEntity
8
0
100
AcDbLine
10
-318.62339683559867
20
1088.4695882034334
30
8.8817841970012523e-15
11
-318.62339683559867
21
1071.7117233015119
31
8.8817841970012523e-15
0
ARC
5
129
100
AcDbEntity
8
0
100
AcDbCircle
10
-319.74946438463837
20
1070.5856557524728
30
8.8817841970012507e-15
40
1.5925000000001488
210
1.0946014432784771e-30
220
1.5324420205897491e-30
230
1
100
AcDbArc
50
-134.99999999999713
51
44.999999999985548
0
LINE
5
130
100
AcDbEntity
8
0
100
AcDbLine
10
-320.87553193367808
20
1069.459588203433
30
8.8817841970012539e-15
11
-459.62339683559918
21
1069.4595882034332
31
1.7763568394002505e-14
0
LINE
5
131
100
AcDbEntity
8
0
100
AcDbLine
10
-459.62339683559918
20
1069.4595882034332
30
1.7763568394002505e-14
11
-459.62339683559924
21
1021.7117233015124
31
8.8817841970012492e-15
0
ENDSEC
0
SECTION
2
OBJECTS
0
DICTIONARY
5
C
100
AcDbDictionary
3
ACAD_GROUP
350
D
3
ACAD_MLINESTYLE
350
17
0
DICTIONARY
5
D
100
AcDbDictionary
0
DICTIONARY
5
1A
330
C
100
AcDbDictionary
0
DICTIONARY
5
17
100
AcDbDictionary
0
ENDSEC
0
EOF
