0
SECTION
2
HEADER
9
$INSUNITS
70
4
9
$ACADVER
1
AC1014
9
$HANDSEED
5
FFFF
0
ENDSEC
0
SECTION
2
TABLES
0
TABLE
2
VPORT
5
8
100
AcDbSymbolTable
0
ENDTAB
0
TABLE
2
LTYPE
5
5
100
AcDbSymbolTable
0
LTYPE
5
14
100
AcDbSymbolTableRecord
100
AcDbLinetypeTableRecord
2
BYBLOCK
70
0
0
LTYPE
5
15
100
AcDbSymbolTableRecord
100
AcDbLinetypeTableRecord
2
BYLAYER
70
0
0
ENDTAB
0
TABLE
2
LAYER
5
2
100
AcDbSymbolTable
70
2
0
LAYER
5
50
100
AcDbSymbolTableRecord
100
AcDbLayerTableRecord
2
0
70
0
6
CONTINUOUS
0
ENDTAB
0
TABLE
2
STYLE
5
3
100
AcDbSymbolTable
70
1
0
STYLE
5
11
100
AcDbSymbolTableRecord
100
AcDbTextStyleTableRecord
2
STANDARD
70
0
0
ENDTAB
0
TABLE
2
VIEW
5
6
100
AcDbSymbolTable
70
0
0
ENDTAB
0
TABLE
2
UCS
5
7
100
AcDbSymbolTable
70
0
0
ENDTAB
0
TABLE
2
APPID
5
9
100
AcDbSymbolTable
70
2
0
APPID
5
12
100
AcDbSymbolTableRecord
100
AcDbRegAppTableRecord
2
ACAD
70
0
0
ENDTAB
0
TABLE
2
DIMSTYLE
5
A
100
AcDbSymbolTable
70
1
0
ENDTAB
0
TABLE
2
BLOCK_RECORD
5
1
100
AcDbSymbolTable
70
1
0
BLOCK_RECORD
5
1F
100
AcDbSymbolTableRecord
100
AcDbBlockTableRecord
2
*MODEL_SPACE
0
BLOCK_RECORD
5
1B
100
AcDbSymbolTableRecord
100
AcDbBlockTableRecord
2
*PAPER_SPACE
0
ENDTAB
0
ENDSEC
0
SECTION
2
BLOCKS
0
BLOCK
5
20
100
AcDbEntity
100
AcDbBlockBegin
2
*MODEL_SPACE
0
ENDBLK
5
21
100
AcDbEntity
100
AcDbBlockEnd
0
BLOCK
5
1C
100
AcDbEntity
100
AcDbBlockBegin
2
*PAPER_SPACE
0
ENDBLK
5
1D
100
AcDbEntity
100
AcDbBlockEnd
0
ENDSEC
0
SECTION
2
ENTITIES
0
LWPOLYLINE
5
100
100
AcDbEntity
8
0
100
AcDbPolyline
90
16
70
1
43
0.0
10
-1878.8999215971237
20
82.252135098079179
42
-0.99999999999999989
10
-1881.1520566952029
20
80.000000000000256
10
-1897.8999215971235
20
80.000000000000213
10
-1897.8999215971235
20
0
10
-840.45860132363589
20
0
10
-840.45860132363589
20
79.99999999999973
10
-857.20646622555694
20
79.999999999999744
42
-0.99999999999999989
10
-859.45860132363589
20
82.252135098078838
10
-859.45860132363566
20
157.74786490192062
42
-0.99999999999999989
10
-857.2064662255566
20
159.99999999999969
10
-840.45860132363589
20
159.99999999999974
10
-840.45860132363589
20
250
10
-1897.8999215971235
20
250
10
-1897.8999215971235
20
160.00000000000023
10
-1881.1520566952029
20
160.00000000000028
42
-0.99999999999999989
10
-1878.8999215971237
20
157.74786490192116
0
CIRCLE
5
101
100
AcDbEntity
8
0
100
AcDbCircle
10
-1776.3415189522771
20
100.45579051192416
30
0
40
31.573001038045877
210
0
220
-0
230
1
0
CIRCLE
5
102
100
AcDbEntity
8
0
100
AcDbCircle
10
-1856.097887446695
20
59.999999999999233
30
0
40
2.7500000000000302
210
0
220
-0
230
1
0
CIRCLE
5
103
100
AcDbEntity
8
0
100
AcDbCircle
10
-1856.0329535166045
20
20.012000388946483
30
0
40
2.7500000000000302
210
0
220
-0
230
1
0
CIRCLE
5
104
100
AcDbEntity
8
0
100
AcDbCircle
10
-1856.031285387767
20
192.00000000078521
30
0
40
2.7500000000000302
210
0
220
-0
230
1
0
CIRCLE
5
105
100
AcDbEntity
8
0
100
AcDbCircle
10
-1856.0312853877667
20
232.00000000078646
30
0
40
2.7500000000000302
210
0
220
-0
230
1
0
CIRCLE
5
106
100
AcDbEntity
8
0
100
AcDbCircle
10
-1678.4313733577665
20
232.00000000078643
30
0
40
2.7500000000000302
210
0
220
-0
230
1
0
CIRCLE
5
107
100
AcDbEntity
8
0
100
AcDbCircle
10
-1579.8677702699242
20
192.00000000078518
30
0
40
2.7500000000000302
210
0
220
-0
230
1
0
CIRCLE
5
108
100
AcDbEntity
8
0
100
AcDbCircle
10
-1642.3152253440505
20
59.999999999999233
30
0
40
2.7500000000000302
210
0
220
-0
230
1
0
CIRCLE
5
109
100
AcDbEntity
8
0
100
AcDbCircle
10
-1579.8694424654989
20
20.091119811603939
30
0
40
2.7500000000000302
210
0
220
-0
230
1
0
CIRCLE
5
110
100
AcDbEntity
8
0
100
AcDbCircle
10
-1359.1997916281425
20
57.550000000074007
30
0
40
2.7500000000000302
210
0
220
-0
230
1
0
CIRCLE
5
111
100
AcDbEntity
8
0
100
AcDbCircle
10
-1358.7480494964805
20
232.00000000078634
30
0
40
2.7500000000000302
210
0
220
-0
230
1
0
CIRCLE
5
112
100
AcDbEntity
8
0
100
AcDbCircle
10
-1197.9948048975368
20
192.00000000078515
30
0
40
2.7500000000000302
210
0
220
-0
230
1
0
CIRCLE
5
113
100
AcDbEntity
8
0
100
AcDbCircle
10
-1197.9964827165077
20
20.200524446520539
30
0
40
2.7500000000000302
210
0
220
-0
230
1
0
CIRCLE
5
114
100
AcDbEntity
8
0
100
AcDbCircle
10
-1034.9982216733015
20
59.999999999999233
30
0
40
2.7500000000000302
210
0
220
-0
230
1
0
CIRCLE
5
115
100
AcDbEntity
8
0
100
AcDbCircle
10
-1022.3174813627196
20
232.00000000078632
30
0
40
2.7500000000000302
210
0
220
-0
230
1
0
CIRCLE
5
116
100
AcDbEntity
8
0
100
AcDbCircle
10
-850.7806261038013
20
192.00000000078512
30
0
40
2.7500000000000302
210
0
220
-0
230
1
0
CIRCLE
5
117
100
AcDbEntity
8
0
100
AcDbCircle
10
-850.90507002599179
20
232.00000000078629
30
0
40
2.7500000000000302
210
0
220
-0
230
1
0
CIRCLE
5
118
100
AcDbEntity
8
0
100
AcDbCircle
10
-850.78062610380141
20
59.999999999999758
30
0
40
2.7500000000000302
210
0
220
-0
230
1
0
CIRCLE
5
119
100
AcDbEntity
8
0
100
AcDbCircle
10
-850.78062610380141
20
20.300000000000789
30
0
40
2.7500000000000302
210
0
220
-0
230
1
0
ENDSEC
0
SECTION
2
OBJECTS
0
DICTIONARY
5
C
100
AcDbDictionary
3
ACAD_GROUP
350
D
3
ACAD_MLINESTYLE
350
17
0
DICTIONARY
5
D
100
AcDbDictionary
0
DICTIONARY
5
1A
330
C
100
AcDbDictionary
0
DICTIONARY
5
17
100
AcDbDictionary
0
ENDSEC
0
EOF
